<?xml version="1.0" encoding="UTF-8"?>
<svg id="Capa_2" data-name="Capa 2" xmlns="http://www.w3.org/2000/svg" xmlns:xlink="http://www.w3.org/1999/xlink" viewBox="0 0 32 32">
  <defs>
    <style>
      .cls-1 {
        fill: #fff;
      }

      .cls-2 {
        fill: url(#Degradado_sin_nombre_11);
      }
    </style>
    <linearGradient id="Degradado_sin_nombre_11" data-name="Degradado sin nombre 11" x1="0" y1="0" x2="32" y2="32" gradientUnits="userSpaceOnUse">
      <stop offset="0" stop-color="#2575fc"/>
      <stop offset="1" stop-color="#6a11cb"/>
    </linearGradient>
  </defs>
  <g id="Capa_1-2" data-name="Capa 1">
    <g>
      <rect class="cls-2" width="32" height="32"/>
      <path class="cls-1" d="M16.29,23.69h-5.18c-.18,0-.36-.06-.51-.18-.24-.19-.39-.46-.43-.75-.05-.45.2-.77.25-.84.21-.24.42-.47.63-.71l-2.13-1.19-.99,1.28c-.22.29-.34.64-.34,1v1.91c0,1.16.94,2.1,2.1,2.1h10.43c.43-.02,1.61-.12,2.74-.98,1.01-.77,1.43-1.73,1.59-2.14.16-.43.37-1.12.37-1.99,0-.92-.21-1.64-.37-2.08-.51-1.3-1.23-1.92-1.63-2.21-.47-.33-1.08-.6-1.68-.88-.48-.22-2.22-.78-2.5-.88-1.25-.38-1.17-.35-2.42-.73-.14-.03-.5-.15-.69-.47-.11-.2-.13-.43-.15-.62-.01-.16,0-.29,0-.39h3.39c.29,0,.57-.12.75-.35s.31-.51.32-.82c.01-.34-.11-.67-.34-.93-.18-.21-.45-.32-.73-.32h-5.94v3.37c0,.59.18,1.17.54,1.64.02.02.04.05.06.07.5.61,1.11.84,1.37.92,1.64.53,2.76.75,4.4,1.28.19.04,2.02.66,2.72,1.97.72,1.35.18,2.66.11,2.82-.17.36-.48.9-1.03,1.41-.68.63-1.38.91-1.78,1.03,1.08-1.79,1.18-3.7.27-4.78-.19-.23-.53-.53-1.09-.73l-5.47-2.01c-.68-.25-1.3-.65-1.8-1.18l-.07-.08c-.49-.52-.78-1.2-.78-1.92,0,0,0-.01,0-.02v-6.06h8.9c.53,0,1.06.11,1.54.34s.97.58,1.27,1.17c.68,1.31.12,3.24-1.54,4.28l2.1,1.17.19.11c.21-.18,2.24-1.95,2.1-4.63-.12-2.34-1.75-3.72-2.01-3.94-.29-.24-.77-.6-1.44-.84-.67-.24-1.26-.28-1.64-.28h-10.89c-.69,0-1.25.56-1.25,1.25v7.77c.03.54.17,1.61.87,2.73.81,1.3,2.1,1.95,3.58,2.62l4.78,1.52c.12.04.53.18.68.53.16.36.02.88-.39,1.27-.22.21-.52.33-.83.33Z"/>
    </g>
  </g>
</svg>