<?xml version="1.0" encoding="UTF-8"?>
<svg id="Capa_2" data-name="Capa 2" xmlns="http://www.w3.org/2000/svg" viewBox="0 0 1809.53 704.68">
  <defs>
    <style>
      .cls-1 {
        fill: #fff;
      }
    </style>
  </defs>
  <g id="Capa_5" data-name="Capa 5">
    <g>
      <path class="cls-1" d="M296.56,615H119.69c-6.29,0-12.43-2.07-17.35-5.99-8.05-6.4-13.4-15.54-14.55-25.63-1.74-15.21,6.78-26.26,8.63-28.55,7.19-8.08,14.39-16.16,21.58-24.23l-72.67-40.63-33.7,43.67c-7.53,9.76-11.62,21.74-11.62,34.07v65.21c0,39.63,32.13,71.76,71.76,71.76h356.02c14.58-.55,54.86-3.99,93.46-33.42,34.52-26.32,48.93-59.12,54.15-73.1,5.59-14.68,12.54-38.24,12.78-67.87.26-31.29-7.07-56.08-12.78-71.09-17.36-44.36-41.87-65.7-55.67-75.46-15.95-11.29-36.73-20.65-57.3-29.92-16.38-7.38-75.75-26.46-85.48-30.04-42.73-12.86-40.01-12.04-82.74-24.91-4.68-1.16-17.14-4.96-23.48-16.08-3.85-6.76-4.51-14.57-5.06-21.01-.46-5.43-.26-9.98.03-13.18h115.57c9.9,0,19.39-4.24,25.76-11.81,6.54-7.76,10.45-17.58,10.77-27.99.36-11.75-3.9-22.99-11.47-31.58-6.28-7.13-15.47-11.02-24.98-11.02h-202.59v114.95c0,20.14,6.21,39.95,18.47,55.94.65.85,1.32,1.7,2.02,2.54,17.06,20.8,37.91,28.77,46.65,31.57,55.95,17.99,94.16,25.54,150.11,43.53,6.36,1.39,69.04,22.48,92.79,67.4,24.42,46.2,6.31,90.64,3.87,96.36-5.77,12.12-16.45,30.63-35.31,48.16-23.07,21.44-47.17,31.01-60.86,35.3,36.99-61.07,40.43-126.39,9.13-163.09-6.63-7.77-17.98-17.97-37.27-25.05l-186.85-68.47c-23.29-8.53-44.29-22.33-61.37-40.32l-2.47-2.6c-16.81-17.71-26.51-41.11-26.61-65.52,0-.17,0-.35,0-.52V89.66h303.81c18.18,0,36.23,3.79,52.66,11.57,15.95,7.55,32.99,19.86,43.37,39.79,23.29,44.7,4.2,110.63-52.65,145.99l71.66,40,6.63,3.84c7.27-5.99,76.48-66.44,71.62-158.12-4.24-80.03-59.57-126.91-68.75-134.43-9.75-8.34-26.16-20.34-49.27-28.73C447.14,1.23,426.96-.12,414.16,0H42.57C19.06,0,0,19.07,0,42.58v265.31c1.13,18.29,5.87,54.96,29.56,93.23,27.49,44.4,71.71,66.66,122.08,89.33l162.99,51.81c4.25,1.27,18.1,5.98,23.37,18.18,5.37,12.44.62,29.91-13.28,43.29-7.55,7.27-17.68,11.26-28.16,11.26Z"/>
      <g>
        <path class="cls-1" d="M876.22,245.17c-7.55-4.57-15.9-7.22-25.04-7.94v-.77c8.32-2.05,15.56-5.32,21.72-9.78,6.16-4.47,10.94-10.12,14.33-16.95,3.39-6.83,5.08-14.66,5.08-23.5,0-11.71-2.95-21.98-8.86-30.81-5.91-8.83-14.59-15.74-26.04-20.72-11.45-4.98-25.45-7.47-41.98-7.47h-91.83v229.57h97.22c17.36,0,31.99-2.72,43.91-8.17,11.91-5.44,20.93-13.02,27.04-22.73,6.11-9.71,9.17-20.88,9.17-33.51,0-10.99-2.23-20.47-6.7-28.43-4.47-7.96-10.48-14.23-18.03-18.8ZM770.15,164.82h41.29c10.48,0,18.69,2.62,24.65,7.86,5.96,5.24,8.94,12.22,8.94,20.95,0,5.96-1.39,11.15-4.16,15.56-2.77,4.42-6.68,7.81-11.71,10.17-5.03,2.36-11.04,3.54-18.03,3.54h-40.98v-58.09ZM842.56,311.34c-6.68,5.24-16.33,7.86-28.97,7.86h-43.45v-61.48h44.37c7.91,0,14.71,1.31,20.41,3.93,5.7,2.62,10.07,6.29,13.1,11.02,3.03,4.73,4.54,10.32,4.54,16.79,0,9.35-3.34,16.64-10.01,21.88Z"/>
        <path class="cls-1" d="M1062.89,267.28c12.84-5.96,22.78-14.48,29.81-25.58,7.03-11.09,10.55-24.19,10.55-39.29s-3.37-28.73-10.09-39.98c-6.73-11.25-16.33-19.93-28.81-26.04-12.48-6.11-27.4-9.17-44.76-9.17h-91.36v229.57h47.3v-80.58h41.03l41.25,80.58h51.31l-46.76-89.28c.18-.08.36-.16.54-.24ZM975.53,166.52h39.9c8.63,0,16,1.46,22.11,4.39,6.11,2.93,10.79,7.04,14.02,12.33,3.24,5.29,4.85,11.68,4.85,19.18s-1.62,13.61-4.85,18.95c-3.23,5.34-7.88,9.45-13.94,12.33-6.06,2.88-13.4,4.31-22.03,4.31h-40.06v-71.49Z"/>
        <path class="cls-1" d="M1289.37,137.94c-16.23-9.5-34.62-14.25-55.16-14.25s-38.98,4.75-55.31,14.25c-16.33,9.5-29.2,23.11-38.6,40.83-9.4,17.72-14.1,38.85-14.1,63.4s4.7,45.35,14.1,63.02c9.4,17.67,22.26,31.28,38.6,40.83,16.33,9.55,34.77,14.33,55.31,14.33s38.93-4.75,55.16-14.25c16.23-9.5,29.07-23.08,38.52-40.75,9.45-17.67,14.17-38.72,14.17-63.17s-4.73-45.68-14.17-63.4c-9.45-17.72-22.29-31.33-38.52-40.83ZM1286.75,283.61c-5.14,11.4-12.23,20.08-21.26,26.04-9.04,5.96-19.47,8.94-31.28,8.94s-22.26-2.98-31.35-8.94c-9.09-5.96-16.2-14.64-21.34-26.04-5.14-11.4-7.7-25.22-7.7-41.45s2.57-30.22,7.7-41.68c5.14-11.45,12.25-20.16,21.34-26.12,9.09-5.96,19.54-8.94,31.35-8.94s22.24,2.98,31.28,8.94c9.04,5.96,16.12,14.66,21.26,26.12,5.14,11.45,7.7,25.34,7.7,41.68s-2.57,30.04-7.7,41.45Z"/>
        <path class="cls-1" d="M1439.98,174.76c9.19-6.21,20.16-9.32,32.89-9.32,6.78,0,13.04.95,18.8,2.85,5.75,1.9,10.89,4.65,15.41,8.24,4.52,3.6,8.29,8.01,11.32,13.25,3.03,5.24,5.21,11.2,6.55,17.87h47.76c-1.75-12.94-5.47-24.57-11.17-34.9-5.7-10.32-12.97-19.13-21.8-26.42-8.83-7.29-18.98-12.89-30.43-16.79-11.45-3.9-23.86-5.85-37.21-5.85-20.75,0-39.32,4.75-55.7,14.25-16.38,9.5-29.27,23.09-38.67,40.75-9.4,17.67-14.1,38.83-14.1,63.48s4.7,45.5,14.1,63.17c9.4,17.67,22.26,31.25,38.6,40.75,16.33,9.5,34.92,14.25,55.77,14.25,13.66,0,26.24-2.03,37.75-6.09,11.5-4.06,21.67-9.81,30.51-17.26,8.83-7.45,16.02-16.28,21.57-26.5,5.55-10.22,9.14-21.49,10.79-33.82h-47.76c-1.34,6.57-3.54,12.46-6.62,17.64-3.08,5.19-6.88,9.58-11.4,13.17-4.52,3.6-9.63,6.34-15.33,8.24-5.7,1.9-11.94,2.85-18.72,2.85-12.74,0-23.7-3.08-32.89-9.24-9.19-6.16-16.28-14.95-21.26-26.35-4.98-11.4-7.47-25.01-7.47-40.83s2.49-29.45,7.47-40.91c4.98-11.45,12.07-20.28,21.26-26.5Z"/>
        <path class="cls-1" d="M1795.35,178.76c-9.45-17.72-22.29-31.33-38.52-40.83-16.23-9.5-34.62-14.25-55.16-14.25s-38.98,4.75-55.31,14.25c-16.33,9.5-29.2,23.11-38.6,40.83-9.4,17.72-14.1,38.85-14.1,63.4s4.7,45.35,14.1,63.02c9.4,17.67,22.26,31.28,38.6,40.83s34.77,14.33,55.31,14.33,38.93-4.75,55.16-14.25c16.23-9.5,29.07-23.08,38.52-40.75,9.45-17.67,14.17-38.72,14.17-63.17s-4.73-45.68-14.17-63.4ZM1754.21,283.61c-5.14,11.4-12.23,20.08-21.26,26.04-9.04,5.96-19.47,8.94-31.28,8.94s-22.26-2.98-31.35-8.94c-9.09-5.96-16.2-14.64-21.34-26.04-5.14-11.4-7.7-25.22-7.7-41.45s2.57-30.22,7.7-41.68c5.14-11.45,12.25-20.16,21.34-26.12,9.09-5.96,19.54-8.94,31.35-8.94s22.24,2.98,31.28,8.94c9.04,5.96,16.12,14.66,21.26,26.12,5.14,11.45,7.7,25.34,7.7,41.68s-2.57,30.04-7.7,41.45Z"/>
      </g>
      <g>
        <path class="cls-1" d="M821.05,520.08c-3.59-3.28-8.11-6.1-13.56-8.45-5.45-2.35-11.89-4.27-19.31-5.76l-12.16-2.51c-5.02-1.05-9.15-2.26-12.4-3.62-3.25-1.36-5.65-2.95-7.2-4.78-1.55-1.83-2.32-4.07-2.32-6.73s.87-5.26,2.6-7.43c1.73-2.17,4.19-3.85,7.38-5.06,3.19-1.21,6.85-1.81,11-1.81,6.62,0,11.95,1.59,15.97,4.78,4.02,3.19,6.25,7.57,6.68,13.14h31.11c-.25-9.29-2.59-17.27-7.01-23.96-4.43-6.69-10.63-11.84-18.62-15.46s-17.46-5.43-28.41-5.43-20.15,1.8-28.32,5.39c-8.17,3.59-14.55,8.61-19.13,15.04-4.58,6.44-6.87,13.96-6.87,22.56,0,10.15,3.44,18.49,10.31,25.02,6.87,6.53,16.9,11.16,30.08,13.88l14.21,3.06c5.45,1.11,9.9,2.4,13.37,3.85,3.46,1.45,6.02,3.14,7.66,5.06,1.64,1.92,2.46,4.21,2.46,6.87,0,2.97-.96,5.59-2.88,7.85-1.92,2.26-4.6,4.01-8.03,5.25-3.44,1.24-7.51,1.86-12.21,1.86-5.2,0-9.72-.82-13.56-2.46-3.84-1.64-6.84-4.02-9.01-7.15-2.17-3.13-3.34-6.89-3.53-11.28h-31.75c.06,10.28,2.37,18.97,6.92,26.09,4.55,7.12,11.13,12.52,19.73,16.2,8.6,3.68,18.94,5.53,31.01,5.53s21.94-1.73,30.36-5.2c8.42-3.47,14.86-8.46,19.31-15,4.46-6.53,6.69-14.38,6.69-23.54,0-5.39-.87-10.21-2.6-14.49-1.73-4.27-4.4-8.05-7.99-11.33Z"/>
        <path class="cls-1" d="M943.25,455.41c-9.97-5.6-21.17-8.4-33.61-8.4s-23.76,2.8-33.75,8.4c-10,5.6-17.89,13.73-23.68,24.37-5.79,10.65-8.68,23.52-8.68,38.63s2.89,27.78,8.68,38.39c5.79,10.62,13.68,18.74,23.68,24.37,10,5.63,21.25,8.45,33.75,8.45s23.64-2.8,33.61-8.4c9.97-5.6,17.88-13.71,23.72-24.33,5.85-10.62,8.77-23.45,8.77-38.49s-2.93-27.98-8.77-38.63c-5.85-10.65-13.76-18.77-23.72-24.37ZM938.14,541.25c-2.66,6.31-6.42,11.11-11.28,14.39-4.86,3.28-10.6,4.92-17.22,4.92s-12.37-1.64-17.23-4.92c-4.86-3.28-8.62-8.08-11.28-14.39-2.66-6.31-3.99-13.93-3.99-22.84s1.33-16.63,3.99-22.98c2.66-6.34,6.42-11.16,11.28-14.44,4.86-3.28,10.6-4.92,17.23-4.92s12.36,1.64,17.22,4.92c4.86,3.28,8.62,8.09,11.28,14.44,2.66,6.35,3.99,14.01,3.99,22.98s-1.33,16.53-3.99,22.84Z"/>
        <polygon class="cls-1" points="1023.75 449.14 990.51 449.14 990.51 587.49 1084.29 587.49 1084.29 559.45 1023.75 559.45 1023.75 449.14"/>
        <path class="cls-1" d="M1181.78,535.95c0,4.95-1.07,9.3-3.2,13.05-2.14,3.75-5.12,6.7-8.96,8.87-3.84,2.17-8.33,3.25-13.46,3.25s-9.63-1.08-13.46-3.25c-3.84-2.17-6.84-5.14-9.01-8.91-2.17-3.77-3.25-8.11-3.25-13v-86.82h-32.59v89.6c0,10.15,2.41,19.05,7.24,26.7,4.83,7.65,11.61,13.59,20.33,17.83,8.73,4.24,18.97,6.36,30.73,6.36s21.91-2.12,30.64-6.36c8.73-4.24,15.51-10.18,20.33-17.83,4.83-7.65,7.24-16.54,7.24-26.7v-89.6h-32.59v86.82Z"/>
        <polygon class="cls-1" points="1228.02 477.18 1268.97 477.18 1268.97 587.49 1302.21 587.49 1302.21 477.18 1343.16 477.18 1343.16 449.14 1228.02 449.14 1228.02 477.18"/>
        <rect class="cls-1" x="1357" y="449.14" width="33.24" height="138.35"/>
        <path class="cls-1" d="M1504.72,455.41c-9.97-5.6-21.17-8.4-33.61-8.4s-23.76,2.8-33.75,8.4c-10,5.6-17.89,13.73-23.68,24.37-5.79,10.65-8.68,23.52-8.68,38.63s2.89,27.78,8.68,38.39c5.79,10.62,13.68,18.74,23.68,24.37,10,5.63,21.25,8.45,33.75,8.45s23.64-2.8,33.61-8.4c9.97-5.6,17.88-13.71,23.72-24.33,5.85-10.62,8.77-23.45,8.77-38.49s-2.93-27.98-8.77-38.63c-5.85-10.65-13.76-18.77-23.72-24.37ZM1499.62,541.25c-2.66,6.31-6.42,11.11-11.28,14.39-4.86,3.28-10.6,4.92-17.22,4.92s-12.37-1.64-17.23-4.92c-4.86-3.28-8.62-8.08-11.28-14.39-2.66-6.31-3.99-13.93-3.99-22.84s1.33-16.63,3.99-22.98c2.66-6.34,6.42-11.16,11.28-14.44,4.86-3.28,10.6-4.92,17.23-4.92s12.36,1.64,17.22,4.92c4.86,3.28,8.62,8.09,11.28,14.44,2.66,6.35,3.99,14.01,3.99,22.98s-1.33,16.53-3.99,22.84Z"/>
        <path class="cls-1" d="M1640.38,508.84c0,3.41.06,7.89.19,13.46.12,5.53.31,11.27.55,17.22-.8-1.58-1.59-3.16-2.41-4.73-2.41-4.61-4.72-8.9-6.92-12.86-2.2-3.96-4.13-7.3-5.8-10.03l-39.18-62.77h-34.82v138.35h33.43v-57.57c0-2.85-.05-6.7-.14-11.56-.09-4.86-.27-10.35-.51-16.48-.06-1.52-.13-3.05-.2-4.61,1,1.88,1.98,3.73,2.94,5.54,3,5.63,5.82,10.72,8.45,15.27,2.63,4.55,4.97,8.5,7.01,11.84l35.93,57.57h34.91v-138.35h-33.43v59.7Z"/>
        <path class="cls-1" d="M1800.93,531.4c-1.73-4.27-4.4-8.05-7.99-11.33s-8.11-6.1-13.56-8.45c-5.45-2.35-11.89-4.27-19.31-5.76l-12.16-2.51c-5.02-1.05-9.15-2.26-12.4-3.62-3.25-1.36-5.65-2.95-7.2-4.78-1.55-1.83-2.32-4.07-2.32-6.73s.87-5.26,2.6-7.43c1.73-2.17,4.19-3.85,7.38-5.06,3.19-1.21,6.85-1.81,11-1.81,6.62,0,11.95,1.59,15.97,4.78,4.02,3.19,6.25,7.57,6.68,13.14h31.11c-.25-9.29-2.59-17.27-7.01-23.96-4.43-6.69-10.63-11.84-18.62-15.46-7.98-3.62-17.46-5.43-28.41-5.43s-20.15,1.8-28.32,5.39c-8.17,3.59-14.55,8.61-19.13,15.04-4.58,6.44-6.87,13.96-6.87,22.56,0,10.15,3.44,18.49,10.31,25.02,6.87,6.53,16.9,11.16,30.08,13.88l14.21,3.06c5.45,1.11,9.9,2.4,13.37,3.85,3.46,1.45,6.02,3.14,7.66,5.06,1.64,1.92,2.46,4.21,2.46,6.87,0,2.97-.96,5.59-2.88,7.85-1.92,2.26-4.6,4.01-8.03,5.25-3.44,1.24-7.51,1.86-12.21,1.86-5.2,0-9.72-.82-13.56-2.46-3.84-1.64-6.84-4.02-9.01-7.15-2.17-3.13-3.34-6.89-3.53-11.28h-31.75c.06,10.28,2.37,18.97,6.92,26.09,4.55,7.12,11.13,12.52,19.73,16.2,8.6,3.68,18.94,5.53,31.01,5.53s21.94-1.73,30.36-5.2c8.42-3.47,14.86-8.46,19.31-15,4.46-6.53,6.69-14.38,6.69-23.54,0-5.39-.87-10.21-2.6-14.49Z"/>
      </g>
    </g>
  </g>
</svg>